<svg xmlns="http://www.w3.org/2000/svg" viewBox="0 0 96 96" width="96" height="96">
  <defs>
    <linearGradient id="sp" x1="0%" y1="0%" x2="100%" y2="100%">
      <stop offset="0%" stop-color="#fefce8"/>
      <stop offset="100%" stop-color="#fde68a"/>
    </linearGradient>
    <linearGradient id="sseal" x1="0%" y1="0%" x2="0%" y2="100%">
      <stop offset="0%" stop-color="#22c55e"/>
      <stop offset="100%" stop-color="#15803d"/>
    </linearGradient>
  </defs>
  <path fill="url(#sp)" stroke="#ca8a04" stroke-width="1.5" d="M28 18h38c4 0 8 3 8 7v46c0 4-4 7-8 7H28c-4 0-8-3-8-7V25c0-4 4-7 8-7z"/>
  <path fill="none" stroke="#a16207" stroke-width="1" opacity="0.5" d="M32 28h28M32 38h22M32 48h26"/>
  <circle cx="47" cy="62" r="10" fill="url(#sseal)"/>
  <path d="M42 62 L46 66 L54 56" stroke="#ecfdf5" stroke-width="2.2" fill="none" stroke-linecap="round" stroke-linejoin="round"/>
  <ellipse cx="72" cy="44" rx="10" ry="14" fill="url(#sp)" stroke="#ca8a04" stroke-width="1.5" transform="rotate(-12 72 44)"/>
</svg>
